<svg width="164" height="37" viewBox="0 0 164 37" fill="none" xmlns="http://www.w3.org/2000/svg">
<g clip-path="url(#clip0)">
<path fill-rule="evenodd" clip-rule="evenodd" d="M38.2595 3.06237C37.3194 2.59022 36.1561 2.45107 34.8561 2.68755C34.0546 2.83394 33.2 3.1235 32.3138 3.56509C31.463 3.99059 30.6484 4.52387 29.8766 5.14242L33.0075 6.71572C33.7793 6.09718 34.5939 5.56389 35.4438 5.1392C36.33 4.69681 37.1836 4.40724 37.9861 4.26085C39.2861 4.02437 40.4494 4.16352 41.3895 4.63568L38.2595 3.06237Z" fill="#F0A72E"/>
<mask id="mask0" mask-type="alpha" maskUnits="userSpaceOnUse" x="0" y="0" width="31" height="35">
<path fill-rule="evenodd" clip-rule="evenodd" d="M0 0.609161H30.3026V34.2347H0V0.609161Z" fill="white"/>
</mask>
<g mask="url(#mask0)">
<path fill-rule="evenodd" clip-rule="evenodd" d="M27.1726 1.17281C26.0865 0.626659 24.7409 0.466594 23.2382 0.740072C22.3102 0.908985 21.3217 1.24359 20.2961 1.75596C18.5898 2.60857 16.9876 3.84727 15.5983 5.31199C13.0421 8.00735 11.2065 11.4677 10.762 14.6891C9.99487 14.8387 9.17285 15.1226 8.32945 15.5441C6.85838 16.2785 5.47751 17.345 4.28075 18.6062C1.71614 21.3064 -0.00971918 24.8971 -0.000420372 28.0227C0.00794856 30.3023 0.9369 31.9069 2.4368 32.6606L5.56678 34.2347C4.06595 33.4802 3.137 31.8756 3.12956 29.5961C3.11933 26.4704 4.84612 22.8797 7.4098 20.1796C8.60749 18.9183 9.98743 17.8518 11.4594 17.1174C12.3019 16.6959 13.1248 16.412 13.8911 16.2624C14.3356 13.041 16.1721 9.58066 18.7283 6.88529C20.1176 5.42057 21.7188 4.18188 23.4261 3.32927C24.4508 2.8169 25.4393 2.48229 26.3673 2.31338C27.8709 2.03909 29.2155 2.19996 30.3025 2.74612L27.1726 1.17281Z" fill="#F0A72E"/>
</g>
<path fill-rule="evenodd" clip-rule="evenodd" d="M23.4258 3.32943C28.2668 0.911556 32.2895 2.44464 33.0073 6.71573C33.7791 6.09719 34.5937 5.5639 35.4436 5.13921C40.0577 2.83475 43.8125 4.68556 43.8274 9.27114C43.8423 13.8575 40.1116 19.4461 35.4975 21.7506L11.5131 33.7289C6.89254 36.0366 3.14419 34.1826 3.12932 29.5962C3.11444 25.0098 6.83768 19.4252 11.4583 17.1176C12.3026 16.6961 13.1246 16.4121 13.8908 16.2625C14.5771 11.2901 18.5774 5.75051 23.4258 3.32943Z" fill="#FFCA00"/>
<path fill-rule="evenodd" clip-rule="evenodd" d="M62.7052 5.3144C61.7651 4.84225 60.6018 4.7031 59.3018 4.93958C58.4993 5.08597 57.6457 5.37553 56.7586 5.81712C55.9087 6.24182 55.0941 6.7759 54.3223 7.39445L57.4523 8.96775C58.2241 8.34921 59.0387 7.81512 59.8895 7.39123C60.7748 6.94803 61.6293 6.65927 62.4309 6.51288C63.7318 6.2764 64.8941 6.41555 65.8342 6.88771L62.7052 5.3144Z" fill="#D43E3E"/>
<path fill-rule="evenodd" clip-rule="evenodd" d="M51.6138 3.41976C50.5277 2.87361 49.1821 2.71274 47.6795 2.98621C46.7514 3.15513 45.7648 3.48974 44.741 4.0013C43.0403 4.85069 41.4427 6.08617 40.0563 7.54848C37.4982 10.2463 35.6589 13.713 35.2135 16.9376C34.4398 17.0905 33.6243 17.3712 32.7744 17.7959C31.3052 18.5294 29.9262 19.596 28.7294 20.8564C26.1648 23.5566 24.4352 27.1488 24.4454 30.2745C24.4529 32.5532 25.3837 34.1563 26.8827 34.9108L30.0126 36.4833C28.5127 35.7296 27.5819 34.1265 27.5745 31.8478C27.5643 28.7221 29.2948 25.1299 31.8585 22.4297C33.0561 21.1685 34.4352 20.1027 35.9034 19.3692C36.7552 18.9445 37.5698 18.6638 38.3434 18.5109C38.7889 15.2855 40.6282 11.8196 43.1863 9.12178C44.5727 7.65948 46.1703 6.424 47.871 5.5738C48.8939 5.06304 49.8814 4.72843 50.8085 4.55952C52.3121 4.28604 53.6567 4.44691 54.7438 4.99306L51.6138 3.41976Z" fill="#D43E3E"/>
<path fill-rule="evenodd" clip-rule="evenodd" d="M47.8706 5.57396C52.7116 3.1569 56.7352 4.69642 57.4521 8.9675C58.2239 8.34896 59.0385 7.81568 59.8893 7.39098C64.5034 5.08653 68.2573 6.93733 68.2722 11.5229C68.2871 16.1093 64.5573 21.6979 59.9433 24.0024L35.9579 35.9807C31.3448 38.2852 27.5899 36.4344 27.5751 31.848C27.5602 27.2616 31.2899 21.673 35.904 19.3685C36.7548 18.9446 37.5703 18.6639 38.3431 18.5103C39.0293 13.5386 43.0297 7.99183 47.8706 5.57396Z" fill="#FA7564"/>
<path d="M82.0893 26.7615L81.8411 13.6839L84.4606 13.6342L86.9016 19.989C87.0561 20.3995 87.2042 20.8234 87.3458 21.2608C87.4873 21.6848 87.6353 22.1088 87.7901 22.5326L87.87 22.5311C88.0086 22.1017 88.1338 21.6726 88.2457 21.2437C88.3706 20.8013 88.5025 20.372 88.6413 19.956L90.7795 13.5142L93.419 13.4641L93.6672 26.5418L91.5276 26.5824L91.4141 20.6035C91.4083 20.2969 91.4086 19.9635 91.4151 19.6033C91.435 19.2428 91.4548 18.8824 91.4746 18.5219C91.4942 18.1482 91.5207 17.7876 91.5541 17.4402C91.5873 17.0795 91.6143 16.7456 91.6351 16.4385L91.5551 16.44L90.553 19.4996L88.525 25.4192L87.1452 25.4453L84.874 19.6074L83.7765 16.5877L83.6965 16.5892C83.729 16.8953 83.762 17.2281 83.7955 17.5875C83.8421 17.9333 83.8822 18.2926 83.916 18.6654C83.9628 19.0246 83.9963 19.384 84.0165 19.7437C84.05 20.1031 84.0696 20.4361 84.0754 20.7428L84.1889 26.7217L82.0893 26.7615ZM98.8234 26.684C97.9569 26.7004 97.2521 26.4537 96.709 25.9439C96.1656 25.4208 95.8857 24.726 95.8692 23.8595C95.8594 23.3396 95.9573 22.8777 96.163 22.4737C96.3818 22.0561 96.7217 21.6963 97.1827 21.3941C97.657 21.0917 98.2523 20.8337 98.9683 20.6201C99.6977 20.4062 100.568 20.2363 101.579 20.1105C101.561 19.8574 101.516 19.6182 101.445 19.3929C101.388 19.1539 101.284 18.9492 101.134 18.7787C100.997 18.5946 100.814 18.458 100.586 18.369C100.357 18.2667 100.076 18.2186 99.743 18.225C99.2631 18.2341 98.7916 18.3364 98.3286 18.5319C97.8789 18.7271 97.4366 18.9622 97.0017 19.2372L96.1327 17.7134C96.6727 17.3564 97.2802 17.0448 97.9553 16.7786C98.6303 16.5124 99.3611 16.3719 100.148 16.357C101.374 16.3337 102.294 16.683 102.908 17.4048C103.535 18.113 103.861 19.1537 103.887 20.5267L103.998 26.3457L102.098 26.3818L101.918 25.305L101.838 25.3065C101.405 25.6881 100.938 26.0104 100.436 26.2733C99.9474 26.5359 99.4099 26.6728 98.8234 26.684ZM99.5291 24.8702C99.929 24.8626 100.287 24.7625 100.604 24.5698C100.933 24.3768 101.282 24.1035 101.648 23.7498L101.606 21.5502C100.941 21.6428 100.384 21.7601 99.9328 21.902C99.4821 22.0439 99.1184 22.2042 98.8418 22.3828C98.5648 22.5481 98.3684 22.7385 98.2525 22.9541C98.1366 23.1697 98.0809 23.3974 98.0854 23.6374C98.0938 24.0773 98.2332 24.3947 98.5036 24.5896C98.774 24.7845 99.1158 24.8781 99.5291 24.8702ZM106.4 26.3001L106.214 16.4819L108.113 16.4458L108.306 18.1825L108.386 18.1809C108.721 17.5345 109.132 17.0399 109.619 16.6973C110.105 16.3413 110.608 16.1584 111.128 16.1485C111.595 16.1397 111.969 16.1993 112.252 16.3273L111.89 18.3345C111.716 18.2844 111.555 18.2475 111.408 18.2236C111.261 18.1997 111.08 18.1898 110.867 18.1939C110.481 18.2012 110.077 18.3622 109.656 18.6769C109.235 18.9783 108.878 19.5052 108.586 20.2575L108.7 26.2565L106.4 26.3001ZM116.974 26.3394C116.401 26.3503 115.913 26.2729 115.509 26.1072C115.119 25.9412 114.795 25.7074 114.536 25.4055C114.29 25.0902 114.103 24.7203 113.975 24.296C113.86 23.8581 113.797 23.3725 113.787 22.8393L113.698 18.1601L112.298 18.1867L112.266 16.467L113.784 16.3382L114.013 13.6534L115.932 13.6169L115.983 16.2964L118.483 16.249L118.517 18.0687L116.018 18.1161L116.107 22.7953C116.128 23.9417 116.599 24.5062 117.519 24.4888C117.692 24.4855 117.865 24.4622 118.038 24.4189C118.224 24.3754 118.389 24.3189 118.535 24.2495L118.967 25.9416C118.702 26.0399 118.397 26.1257 118.051 26.199C117.72 26.2853 117.361 26.3321 116.974 26.3394ZM122.34 26.2376C121.474 26.254 120.769 26.0074 120.226 25.4976C119.682 24.9745 119.402 24.2797 119.386 23.4131C119.376 22.8932 119.474 22.4313 119.68 22.0273C119.898 21.6098 120.238 21.2499 120.699 20.9478C121.174 20.6454 121.769 20.3874 122.485 20.1738C123.214 19.9599 124.085 19.79 125.096 19.6641C125.078 19.4111 125.033 19.1719 124.962 18.9465C124.904 18.7076 124.8 18.5028 124.65 18.3323C124.514 18.1482 124.331 18.0117 124.103 17.9227C123.874 17.8203 123.593 17.7723 123.26 17.7786C122.78 17.7877 122.308 17.89 121.845 18.0855C121.396 18.2808 120.953 18.5159 120.518 18.7908L119.649 17.267C120.189 16.9101 120.797 16.5985 121.472 16.3323C122.147 16.0661 122.878 15.9255 123.664 15.9106C124.891 15.8873 125.811 16.2366 126.425 16.9584C127.052 17.6666 127.378 18.7073 127.404 20.0804L127.515 25.8993L125.615 25.9354L125.434 24.8586L125.354 24.8601C124.922 25.2418 124.454 25.564 123.953 25.8269C123.464 26.0896 122.927 26.2265 122.34 26.2376ZM123.046 24.4239C123.446 24.4163 123.804 24.3161 124.12 24.1234C124.45 23.9305 124.798 23.6571 125.165 23.3035L125.123 21.1039C124.458 21.1965 123.9 21.3138 123.45 21.4557C122.999 21.5976 122.635 21.7579 122.358 21.9365C122.082 22.1018 121.885 22.2922 121.769 22.5078C121.653 22.7233 121.598 22.9511 121.602 23.1911C121.61 23.631 121.75 23.9484 122.02 24.1433C122.291 24.3382 122.633 24.4317 123.046 24.4239ZM135.02 25.9969C134.261 26.0113 133.572 25.9177 132.955 25.7161C132.351 25.5008 131.824 25.1574 131.375 24.6859C130.939 24.214 130.594 23.6071 130.34 22.8652C130.099 22.1096 129.968 21.1919 129.948 20.1121L129.809 12.7734L132.128 12.7294L132.271 20.2481C132.284 20.9546 132.356 21.5534 132.485 22.0443C132.627 22.5217 132.815 22.9049 133.047 23.1939C133.292 23.4826 133.576 23.6906 133.899 23.8178C134.221 23.9317 134.582 23.9849 134.982 23.9773C135.382 23.9697 135.748 23.9027 136.079 23.7764C136.409 23.6368 136.692 23.4181 136.926 23.1202C137.161 22.8224 137.34 22.4323 137.464 21.9498C137.588 21.454 137.643 20.8529 137.63 20.1463L137.487 12.6277L139.707 12.5856L139.846 19.9242C139.867 21.0041 139.771 21.926 139.559 22.6902C139.346 23.441 139.024 24.0606 138.594 24.5488C138.176 25.0369 137.663 25.4 137.054 25.6383C136.458 25.8629 135.78 25.9825 135.02 25.9969ZM142.87 25.6079L142.622 12.5302L146.741 12.4521C147.461 12.4384 148.129 12.4924 148.745 12.6141C149.374 12.7355 149.918 12.9519 150.377 13.2632C150.837 13.5745 151.198 13.9878 151.461 14.5029C151.724 15.0046 151.863 15.6354 151.877 16.3953C151.891 17.1152 151.776 17.7441 151.533 18.2822C151.29 18.8202 150.945 19.2735 150.498 19.642C150.065 19.997 149.543 20.267 148.933 20.4519C148.337 20.6232 147.685 20.7156 146.978 20.729L145.099 20.7647L145.19 25.5639L142.87 25.6079ZM145.063 18.9051L146.763 18.8728C148.683 18.8364 149.628 18.025 149.597 16.4386C149.582 15.6121 149.318 15.0503 148.805 14.7533C148.306 14.4427 147.57 14.2967 146.597 14.3151L144.977 14.3459L145.063 18.9051Z" fill="white"/>
</g>
<defs>
<clipPath id="clip0">
<rect width="164" height="37" fill="white"/>
</clipPath>
</defs>
</svg>
